<svg id="Ebene_1" data-name="Ebene 1" xmlns="http://www.w3.org/2000/svg" viewBox="0 0 261.58 66.08"><defs><style>.cls-1{fill:#0e0e4c;}.cls-2,.cls-3{fill:#fff;}.cls-3{stroke:#fff;stroke-miterlimit:10;stroke-width:0.5px;}</style></defs><path class="cls-1" d="M90.56,49.32c1,4.8,4.3,7.56,10,7.56,6.22,0,9-3.11,9-7.17s-1.81-6.48-9.44-8.41c-7.14-1.81-10.3-4.07-10.3-9,0-4.63,3.42-8.54,10.45-8.54,7.51,0,10.52,4.56,11,8.62H109c-.8-3.88-3.37-6.58-8.82-6.58-5,0-8,2.32-8,6.36s2.35,5.51,8.73,7.11c9.49,2.38,11,6,11,10.3,0,5.17-3.79,9.3-11.45,9.3-8.16,0-11.46-4.66-12.18-9.52Z" transform="translate(-6.17 -6)"/><path class="cls-1" d="M221.79,58.8V45.35a1.56,1.56,0,0,0-.23-.77L209.12,23.8h2.64c3.61,6.05,9.93,16.67,11.3,19.06C224.52,40.3,230.8,30,234.65,23.8h2.52L224.26,44.71a1.36,1.36,0,0,0-.18.74V58.8Z" transform="translate(-6.17 -6)"/><path class="cls-1" d="M267.75,41.07c0,9.43-5,17.84-15.46,17.84-9.58,0-15.18-7.77-15.18-17.59,0-9.61,5.41-17.59,15.51-17.59C262,23.73,267.75,31.2,267.75,41.07Zm-28.27.12c0,8.09,4.42,15.69,12.92,15.69,9,0,13-7.31,13-15.76,0-8.22-4.45-15.35-12.86-15.35C243.7,25.77,239.48,33.08,239.48,41.19Z" transform="translate(-6.17 -6)"/><path class="cls-1" d="M90.56,49.32c1,4.8,4.3,7.56,10,7.56,6.22,0,9-3.11,9-7.17s-1.81-6.48-9.44-8.41c-7.14-1.81-10.3-4.07-10.3-9,0-4.63,3.42-8.54,10.45-8.54,7.51,0,10.52,4.56,11,8.62H109c-.8-3.88-3.37-6.58-8.82-6.58-5,0-8,2.32-8,6.36s2.35,5.51,8.73,7.11c9.49,2.38,11,6,11,10.3,0,5.17-3.79,9.3-11.45,9.3-8.16,0-11.46-4.66-12.18-9.52Z" transform="translate(-6.17 -6)"/><path class="cls-1" d="M221.79,58.8V45.35a1.56,1.56,0,0,0-.23-.77L209.12,23.8h2.64c3.61,6.05,9.93,16.67,11.3,19.06C224.52,40.3,230.8,30,234.65,23.8h2.52L224.26,44.71a1.36,1.36,0,0,0-.18.74V58.8Z" transform="translate(-6.17 -6)"/><path class="cls-1" d="M267.75,41.07c0,9.43-5,17.84-15.46,17.84-9.58,0-15.18-7.77-15.18-17.59,0-9.61,5.41-17.59,15.51-17.59C262,23.73,267.75,31.2,267.75,41.07Zm-28.27.12c0,8.09,4.42,15.69,12.92,15.69,9,0,13-7.31,13-15.76,0-8.22-4.45-15.35-12.86-15.35C243.7,25.77,239.48,33.08,239.48,41.19Z" transform="translate(-6.17 -6)"/><polygon class="cls-1" points="109.87 52.82 121.85 20 134.28 52.82 136.75 52.82 123.2 17.82 120.56 17.82 107.56 52.82 109.87 52.82"/><polygon class="cls-1" points="180.44 52.82 192.41 20 204.84 52.82 207.31 52.82 193.77 17.82 191.13 17.82 178.13 52.82 180.44 52.82"/><polygon class="cls-2" points="156.63 35.4 156.65 35.24 156.68 35.4 156.63 35.4"/><polygon class="cls-1" points="131.97 17.82 134.31 17.82 146.83 50.44 156.03 17.82 158.64 17.82 167.48 50.32 179.41 17.82 181.72 17.82 168.71 52.82 166.04 52.82 157.28 20.45 148.1 52.82 145.48 52.82 131.97 17.82"/><circle class="cls-1" cx="33.04" cy="33.04" r="33.04"/><path class="cls-3" d="M27.25,46.53A26.41,26.41,0,0,1,25.39,44c-.29-.44-.57-.88-.82-1.33s-.51-.91-.75-1.37a30.52,30.52,0,0,1-1.27-2.87c-.37-1-.68-2-.95-3s-.5-2-.67-3.08-.29-2.08-.36-3.13a30.24,30.24,0,0,1-.08-3.16c0-.52,0-1.05.07-1.58,0-.26,0-.53.07-.8l0-.39.06-.42.16-1,.93.45a29.06,29.06,0,0,0,4.42,1.8,18.09,18.09,0,0,0,2.28.57,11,11,0,0,0,1.15.17c.38,0,.76.07,1.15.08a9.65,9.65,0,0,0,4.35-.81A7.58,7.58,0,0,0,37,23a6.82,6.82,0,0,0,.75-.77c.11-.13.22-.27.32-.41l.14-.22.06-.1,0-.07.87-1.59.93,1.59,0,.07.07.1c0,.07.09.14.14.21a4.23,4.23,0,0,0,.33.41,6.73,6.73,0,0,0,.76.75,7.44,7.44,0,0,0,1.82,1.14,9.53,9.53,0,0,0,4.32.73c.38,0,.76-.05,1.14-.1s.75-.11,1.13-.19A17.78,17.78,0,0,0,52.1,24a30.11,30.11,0,0,0,4.35-1.86l1.3-.67L58,22.86l0,.25,0,.23a3.87,3.87,0,0,1,.06.46c0,.31.07.61.1.91.05.61.08,1.21.1,1.81a33.59,33.59,0,0,1-.1,3.62,33,33,0,0,1-1.31,7.11A29.69,29.69,0,0,1,54,43.89a27.65,27.65,0,0,1-2,3,29.41,29.41,0,0,1-2.4,2.71A30.5,30.5,0,0,1,43.92,54c-1,.62-2.07,1.19-3.14,1.71s-2.17,1-3.28,1.39-2.24.78-3.37,1.11q-.85.24-1.71.45c-.58.15-1.15.27-1.73.39-1.15.24-2.31.45-3.47.62s-2.33.3-3.5.39c1.15-.21,2.3-.43,3.44-.69s2.28-.54,3.4-.86a51.05,51.05,0,0,0,6.56-2.33,38.69,38.69,0,0,0,6.07-3.31,30.36,30.36,0,0,0,5.22-4.43,27.7,27.7,0,0,0,4-5.48A29,29,0,0,0,55,36.7a31.25,31.25,0,0,0,.75-3.32A32,32,0,0,0,56.14,30a32.15,32.15,0,0,0,.06-3.4c0-.57-.05-1.13-.1-1.7L56,24.06l0-.42,0-.2,0-.18,1.54.75a30.21,30.21,0,0,1-4.67,2,19,19,0,0,1-2.49.66c-.42.09-.86.15-1.29.21s-.87.09-1.31.11-.88,0-1.33,0A12.06,12.06,0,0,1,45,26.81a10.82,10.82,0,0,1-2.6-.78,9.67,9.67,0,0,1-2.31-1.48,9.07,9.07,0,0,1-1-1c-.15-.18-.29-.36-.43-.56s-.13-.19-.2-.3l-.1-.16,0-.08-.06-.11h1.8a.29.29,0,0,1-.06.1l0,.09a.86.86,0,0,1-.1.16l-.2.3c-.14.19-.28.37-.43.55a9,9,0,0,1-1,1A9.28,9.28,0,0,1,36,26a11.51,11.51,0,0,1-5.22.87c-.43,0-.87-.07-1.29-.13s-.86-.13-1.28-.23a20.71,20.71,0,0,1-2.45-.69,29.72,29.72,0,0,1-4.6-2.06l1.09-.52c0,.1-.05.23-.07.35l-.05.37c0,.25-.07.49-.1.74-.06.5-.11,1-.14,1.51-.07,1-.09,2-.06,3s.09,2,.21,3,.27,2,.47,3a32,32,0,0,0,1.8,5.86c.21.46.41.94.64,1.4s.46.92.71,1.37A30.11,30.11,0,0,0,27.25,46.53Z" transform="translate(-6.17 -6)"/></svg>